<?xml version="1.0" encoding="UTF-8" ?>
<!DOCTYPE svg PUBLIC "-//W3C//DTD SVG 1.1//EN" "http://www.w3.org/Graphics/SVG/1.1/DTD/svg11.dtd">
<svg width="225pt" height="225pt" viewBox="0 0 225 225" version="1.1" xmlns="http://www.w3.org/2000/svg">
<g id="#6c6c6cfe">
<path fill="#6c6c6c" opacity="1.00" d=" M 55.98 27.27 C 59.63 26.75 63.32 27.04 66.99 27.00 C 103.33 27.00 139.66 27.01 176.00 26.99 C 179.34 27.02 182.70 26.79 186.02 27.27 L 184.90 27.93 C 142.31 28.04 99.70 28.06 57.10 27.92 L 55.98 27.27 Z" />
<path fill="#6c6c6c" opacity="1.00" d=" M 52.16 54.86 C 52.03 47.23 51.41 39.47 52.89 31.93 C 52.51 39.56 53.97 47.34 52.16 54.86 Z" />
<path fill="#6c6c6c" opacity="1.00" d=" M 189.34 32.12 L 189.63 30.97 C 189.89 32.65 190.01 34.34 190.00 36.05 C 189.97 87.02 189.98 137.99 190.00 188.96 C 190.01 190.66 189.89 192.35 189.64 194.03 L 189.33 192.89 C 189.37 139.30 189.35 85.71 189.34 32.12 Z" />
<path fill="#6c6c6c" opacity="1.00" d=" M 36.13 76.52 C 34.27 76.37 34.09 71.47 36.07 71.40 C 36.19 73.11 36.21 74.81 36.13 76.52 Z" />
<path fill="#6c6c6c" opacity="1.00" d=" M 40.45 138.97 C 41.87 139.99 40.66 141.57 39.51 142.15 C 38.80 140.82 39.11 139.76 40.45 138.97 Z" />
<path fill="#6c6c6c" opacity="1.00" d=" M 36.14 155.52 C 34.17 155.42 34.25 150.63 36.17 150.49 C 36.28 152.16 36.27 153.85 36.14 155.52 Z" />
<path fill="#6c6c6c" opacity="1.00" d=" M 49.70 169.83 C 50.12 169.81 50.96 169.77 51.38 169.75 L 51.63 170.44 C 51.19 170.48 50.30 170.56 49.86 170.61 L 49.70 169.83 Z" />
<path fill="#6c6c6c" opacity="1.00" d=" M 51.89 171.16 C 54.22 177.94 52.51 185.25 52.75 192.25 C 51.30 185.32 52.39 178.18 51.89 171.16 Z" />
<path fill="#6c6c6c" opacity="1.00" d=" M 57.10 197.08 C 99.70 196.94 142.31 196.96 184.91 197.07 L 186.02 197.74 C 182.37 198.24 178.67 197.96 175.01 198.00 C 138.67 198.00 102.33 197.99 66.00 198.01 C 62.66 197.98 59.30 198.21 55.98 197.74 L 57.10 197.08 Z" />
</g>
<g id="#000000ff">
<path fill="#000000" opacity="1.00" d=" M 56.11 27.87 L 57.10 27.92 C 99.70 28.06 142.31 28.04 184.90 27.93 C 186.97 28.36 188.32 30.41 189.34 32.12 C 189.35 85.71 189.37 139.30 189.33 192.89 C 188.32 194.60 186.96 196.64 184.91 197.07 C 142.31 196.96 99.70 196.94 57.10 197.08 L 56.11 197.13 C 54.95 195.56 53.01 194.30 52.75 192.25 C 52.51 185.25 54.22 177.94 51.89 171.16 L 51.63 170.44 L 51.38 169.75 C 50.96 169.77 50.12 169.81 49.70 169.83 C 42.61 169.63 35.97 162.63 36.14 155.52 C 36.27 153.85 36.28 152.16 36.17 150.49 C 35.99 147.45 37.19 144.15 39.51 142.15 C 40.66 141.57 41.87 139.99 40.45 138.97 C 34.07 133.09 33.84 122.31 39.58 115.96 C 40.55 115.19 41.77 113.48 40.38 112.48 C 34.41 106.55 33.30 95.26 39.70 89.23 C 41.65 88.13 41.67 85.88 39.67 84.82 C 37.29 82.81 35.93 79.63 36.13 76.52 C 36.21 74.81 36.19 73.11 36.07 71.40 C 36.31 62.92 44.47 56.79 52.16 54.86 C 53.97 47.34 52.51 39.56 52.89 31.93 C 53.69 30.39 55.00 29.19 56.11 27.87 M 65.53 40.74 C 65.51 45.41 65.55 50.08 65.50 54.76 C 75.20 57.56 82.73 66.80 82.59 77.04 C 82.99 81.07 77.80 84.17 74.49 81.75 C 71.75 80.40 71.98 77.08 71.49 74.53 C 70.85 71.07 68.33 68.40 65.60 66.37 C 65.44 71.28 65.57 76.20 65.52 81.11 C 75.06 83.93 82.60 92.94 82.57 103.06 C 83.18 107.02 78.20 110.67 74.75 108.31 C 72.00 107.04 71.92 103.80 71.54 101.22 C 71.01 97.63 68.45 94.81 65.62 92.74 C 65.41 97.62 65.61 102.51 65.47 107.39 C 75.71 110.50 83.97 120.90 82.29 131.85 C 80.66 136.86 72.57 136.12 72.04 130.85 C 71.91 126.12 69.59 121.69 65.61 119.07 C 65.43 123.99 65.57 128.92 65.51 133.85 C 73.47 136.31 80.24 142.80 81.99 151.09 C 82.46 153.99 83.52 157.73 81.05 160.03 C 79.23 162.19 75.74 162.20 73.73 160.33 C 71.22 158.27 72.21 154.64 70.99 151.95 C 70.05 149.19 67.82 147.20 65.59 145.45 C 65.43 158.39 65.57 171.33 65.52 184.26 C 102.54 184.24 139.56 184.34 176.58 184.22 C 176.55 136.41 176.55 88.59 176.58 40.78 C 139.56 40.67 102.54 40.75 65.53 40.74 M 46.29 75.73 C 46.85 78.76 49.72 80.25 52.33 81.26 C 52.43 76.10 52.46 70.94 52.30 65.79 C 48.61 67.52 45.07 71.35 46.29 75.73 M 46.23 101.77 C 46.71 104.93 49.56 106.66 52.33 107.61 C 52.43 102.44 52.46 97.27 52.30 92.10 C 48.78 93.92 45.20 97.42 46.23 101.77 M 46.32 128.47 C 46.89 131.47 49.69 133.00 52.31 133.95 C 52.44 128.79 52.45 123.63 52.31 118.48 C 48.67 120.28 45.05 124.08 46.32 128.47 M 46.29 154.73 C 46.81 157.81 49.67 159.38 52.34 160.34 C 52.42 155.18 52.46 150.02 52.31 144.86 C 48.70 146.65 45.08 150.35 46.29 154.73 Z" />
<path fill="#000000" opacity="1.00" d=" M 110.08 85.94 C 110.53 83.07 109.96 79.82 111.88 77.38 C 116.28 79.11 120.52 81.19 124.79 83.20 C 126.41 83.83 127.28 85.39 128.12 86.81 C 138.46 104.82 148.94 122.74 159.27 140.76 C 153.62 144.09 147.94 147.37 142.25 150.63 C 131.77 132.47 121.26 114.33 110.76 96.18 C 108.61 93.14 110.02 89.34 110.08 85.94 M 118.30 85.09 C 117.00 85.94 115.68 86.74 114.32 87.49 C 114.17 88.73 114.03 89.98 113.90 91.23 C 116.72 89.83 119.46 88.25 122.05 86.45 C 120.80 85.99 119.55 85.53 118.30 85.09 Z" />
<path fill="#000000" opacity="1.00" d=" M 143.97 153.50 C 149.66 150.28 155.30 146.97 160.97 143.72 C 162.83 146.83 164.66 149.95 166.37 153.15 C 160.93 156.70 155.31 160.02 149.48 162.88 C 147.51 159.84 145.73 156.67 143.97 153.50 Z" />
</g>
<g id="#ffffffff">
<path fill="#ffffff" opacity="1.00" d=" M 65.53 40.74 C 102.54 40.75 139.56 40.67 176.58 40.78 C 176.55 88.59 176.55 136.41 176.58 184.22 C 139.56 184.34 102.54 184.24 65.52 184.26 C 65.57 171.33 65.43 158.39 65.59 145.45 C 67.82 147.20 70.05 149.19 70.99 151.95 C 72.21 154.64 71.22 158.27 73.73 160.33 C 75.74 162.20 79.23 162.19 81.05 160.03 C 83.52 157.73 82.46 153.99 81.99 151.09 C 80.24 142.80 73.47 136.31 65.51 133.85 C 65.57 128.92 65.43 123.99 65.61 119.07 C 69.59 121.69 71.91 126.12 72.04 130.85 C 72.57 136.12 80.66 136.86 82.29 131.85 C 83.97 120.90 75.71 110.50 65.47 107.39 C 65.61 102.51 65.41 97.62 65.62 92.74 C 68.45 94.81 71.01 97.63 71.54 101.22 C 71.92 103.80 72.00 107.04 74.75 108.31 C 78.20 110.67 83.18 107.02 82.57 103.06 C 82.60 92.94 75.06 83.93 65.52 81.11 C 65.57 76.20 65.44 71.28 65.60 66.37 C 68.33 68.40 70.85 71.07 71.49 74.53 C 71.98 77.08 71.75 80.40 74.49 81.75 C 77.80 84.17 82.99 81.07 82.59 77.04 C 82.73 66.80 75.20 57.56 65.50 54.76 C 65.55 50.08 65.51 45.41 65.53 40.74 M 110.08 85.94 C 110.02 89.34 108.61 93.14 110.76 96.18 C 121.26 114.33 131.77 132.47 142.25 150.63 C 147.94 147.37 153.62 144.09 159.27 140.76 C 148.94 122.74 138.46 104.82 128.12 86.81 C 127.28 85.39 126.41 83.83 124.79 83.20 C 120.52 81.19 116.28 79.11 111.88 77.38 C 109.96 79.82 110.53 83.07 110.08 85.94 M 143.97 153.50 C 145.73 156.67 147.51 159.84 149.48 162.88 C 155.31 160.02 160.93 156.70 166.37 153.15 C 164.66 149.95 162.83 146.83 160.97 143.72 C 155.30 146.97 149.66 150.28 143.97 153.50 Z" />
<path fill="#ffffff" opacity="1.00" d=" M 46.29 75.73 C 45.07 71.35 48.61 67.52 52.30 65.79 C 52.46 70.94 52.43 76.10 52.33 81.26 C 49.72 80.25 46.85 78.76 46.29 75.73 Z" />
<path fill="#ffffff" opacity="1.00" d=" M 39.67 84.82 C 41.67 85.88 41.65 88.13 39.70 89.23 C 39.09 88.13 39.02 85.93 39.67 84.82 Z" />
<path fill="#ffffff" opacity="1.00" d=" M 118.30 85.09 C 119.55 85.53 120.80 85.99 122.05 86.45 C 119.46 88.25 116.72 89.83 113.90 91.23 C 114.03 89.98 114.17 88.73 114.32 87.49 C 115.68 86.74 117.00 85.94 118.30 85.09 Z" />
<path fill="#ffffff" opacity="1.00" d=" M 46.23 101.77 C 45.20 97.42 48.78 93.92 52.30 92.10 C 52.46 97.27 52.43 102.44 52.33 107.61 C 49.56 106.66 46.71 104.93 46.23 101.77 Z" />
<path fill="#ffffff" opacity="1.00" d=" M 40.38 112.48 C 41.77 113.48 40.55 115.19 39.58 115.96 C 38.91 114.58 39.18 113.42 40.38 112.48 Z" />
<path fill="#ffffff" opacity="1.00" d=" M 46.32 128.47 C 45.05 124.08 48.67 120.28 52.31 118.48 C 52.45 123.63 52.44 128.79 52.31 133.95 C 49.69 133.00 46.89 131.47 46.32 128.47 Z" />
<path fill="#ffffff" opacity="1.00" d=" M 46.29 154.73 C 45.08 150.35 48.70 146.65 52.31 144.86 C 52.46 150.02 52.42 155.18 52.34 160.34 C 49.67 159.38 46.81 157.81 46.29 154.73 Z" />
</g>
</svg>
